<?xml version="1.0" encoding="UTF-8" standalone="no"?>
<!-- Created with Inkscape (http://www.inkscape.org/) -->

<svg
   version="1.1"
   id="svg2"
   width="480"
   height="480"
   viewBox="0 0 480 480"
   sodipodi:docname="VTR-12080_logo_NOIR.eps"
   xmlns:inkscape="http://www.inkscape.org/namespaces/inkscape"
   xmlns:sodipodi="http://sodipodi.sourceforge.net/DTD/sodipodi-0.dtd"
   xmlns="http://www.w3.org/2000/svg"
   xmlns:svg="http://www.w3.org/2000/svg">
  <defs
     id="defs6" />
  <sodipodi:namedview
     id="namedview4"
     pagecolor="#ffffff"
     bordercolor="#000000"
     borderopacity="0.25"
     inkscape:showpageshadow="2"
     inkscape:pageopacity="0.0"
     inkscape:pagecheckerboard="0"
     inkscape:deskcolor="#d1d1d1" />
  <g
     id="g8"
     inkscape:groupmode="layer"
     inkscape:label="ink_ext_XXXXXX"
     transform="matrix(1.3333333,0,0,-1.3333333,0,480)">
    <g
       id="g10"
       transform="scale(0.1)">
      <path
         d="m 1761.72,1765.07 c -118.97,99.29 -527.74,457.26 -527.74,457.26 v 285.8 l 1070.9,-919.3 c 44.42,-41.6 72.07,-100.92 72.07,-166.66 0,-126.27 -102.2,-228.64 -228.63,-228.64 -126.21,0 -228.53,102.37 -228.53,228.64 0,0 23.61,191.73 -158.07,342.9 m -299.09,-571.54 c -126.42,0 -228.65,102.37 -228.65,228.64 v 494.27 l 385.04,-327.61 c 44.36,-41.6 72.13,-100.92 72.13,-166.66 0,-126.27 -102.32,-228.64 -228.52,-228.64 M 1233.98,3025.8 H 2831.21 V 1193.53 c -126.21,0 -225.72,102.37 -225.72,228.64 0,0 13.49,198.43 -141.17,329.39 -141.71,120.36 -1230.34,1052.47 -1230.34,1052.47 z M 1005.35,1422.17 c 0,-126.27 -102.381,-228.54 -228.631,-228.54 l 0.105,1832.17 H 1005.35 Z M 2150,961.699 c 136.31,0 257.86,60.891 341.88,155.111 84.11,-95.14 206.97,-155.111 343.97,-155.111 h 21.93 V 3052.71 H 749.805 V 961.699 h 25.293 c 137.761,0 261.642,60.571 345.652,156.951 84.06,-96.38 205.68,-156.951 343.5,-156.951 136.14,0 258.5,59.221 342.52,153.321 84.07,-95.14 206.43,-153.321 343.23,-153.321"
         style="fill:#231f20;fill-opacity:1;fill-rule:nonzero;stroke:none"
         id="path12" />
      <path
         d="m 2760.21,785.961 c 0,8.098 3.62,18.309 31.02,18.309 27.44,0 31.54,-12.75 33.81,-24.52 h 49.28 c -3.89,52.719 -48.52,61.961 -86.12,61.961 -59.59,0 -77.15,-35.332 -77.15,-62.731 0,-70.23 118.64,-46.558 118.64,-77.949 0,-7.179 -6.05,-19.289 -31.93,-19.289 -31.82,0 -41.86,11.617 -41.86,27.387 h -51.66 c 1.36,-50.09 48.51,-64.938 92.17,-64.938 29.66,0 83.75,9.989 83.75,64.559 0,69.102 -119.95,47.539 -119.95,77.211"
         style="fill:#231f20;fill-opacity:1;fill-rule:nonzero;stroke:none"
         id="path14" />
      <path
         d="M 796.602,887.461 H 746.035 V 836.742 H 720.156 V 801.41 h 25.879 V 687.629 c 0,-24.207 8.106,-40.578 51.531,-40.578 h 6.489 c 7.886,0 15.769,0.429 23.718,0.648 v 37.5 c -3.515,-0.429 -7.293,-0.711 -10.429,-0.711 -20.528,0 -20.742,4.16 -20.742,15.141 V 801.41 h 31.171 v 35.332 h -31.171 v 50.719"
         style="fill:#231f20;fill-opacity:1;fill-rule:nonzero;stroke:none"
         id="path16" />
      <path
         d="m 900.977,804.27 h -0.547 v 32.472 H 852.129 V 649.219 h 50.469 v 97.672 c 0,20.75 7.129,44.629 46.347,44.629 4.707,0 10.11,0 14.485,-0.598 v 50.187 c -3.352,0.161 -6.477,0.602 -9.778,0.602 -30.586,0 -42.148,-18.313 -52.675,-37.441"
         style="fill:#231f20;fill-opacity:1;fill-rule:nonzero;stroke:none"
         id="path18" />
      <path
         d="m 1072.07,685.84 c -38.94,0 -46.13,33.07 -46.13,57.109 0,24.039 7.19,57.211 46.13,57.211 38.85,0 46.04,-33.172 46.04,-57.211 0,-24.039 -7.19,-57.109 -46.04,-57.109 m 0,155.871 c -51.43,0 -97.949,-31.07 -97.949,-98.762 0,-67.64 46.519,-98.758 97.949,-98.758 51.44,0 97.85,31.118 97.85,98.758 0,67.692 -46.41,98.762 -97.85,98.762"
         style="fill:#231f20;fill-opacity:1;fill-rule:nonzero;stroke:none"
         id="path20" />
      <path
         d="m 1192.17,649.219 h 50.41 v 187.523 h -50.41 V 649.219"
         style="fill:#231f20;fill-opacity:1;fill-rule:nonzero;stroke:none"
         id="path22" />
      <path
         d="m 1192.17,858.832 h 50.41 v 46.027 h -50.41 v -46.027"
         style="fill:#231f20;fill-opacity:1;fill-rule:nonzero;stroke:none"
         id="path24" />
      <path
         d="m 1316.38,785.961 c 0,8.098 3.51,18.309 30.95,18.309 27.24,0 31.56,-12.75 33.82,-24.52 h 49.16 c -3.88,52.719 -48.56,61.961 -85.99,61.961 -59.77,0 -77.38,-35.332 -77.38,-62.731 0,-70.23 118.75,-46.558 118.75,-77.949 0,-7.179 -6.04,-19.289 -31.98,-19.289 -31.66,0 -41.71,11.617 -41.71,27.387 h -51.97 c 1.41,-50.09 48.68,-64.938 92.17,-64.938 29.93,0 84.01,9.989 84.01,64.559 0,69.102 -119.83,47.539 -119.83,77.211"
         style="fill:#231f20;fill-opacity:1;fill-rule:nonzero;stroke:none"
         id="path26" />
      <path
         d="m 1481.21,724.84 h 155.37 v 46.039 H 1481.21 V 724.84"
         style="fill:#231f20;fill-opacity:1;fill-rule:nonzero;stroke:none"
         id="path28" />
      <path
         d="m 1735.84,804.27 h -0.92 v 32.472 h -48.25 V 649.219 h 50.4 v 97.57 c 0,20.852 7.19,44.731 46.52,44.731 4.54,0 10.1,0 14.32,-0.598 v 50.187 c -3.24,0.161 -6.38,0.602 -9.78,0.602 -30.52,0 -41.98,-18.313 -52.29,-37.441"
         style="fill:#231f20;fill-opacity:1;fill-rule:nonzero;stroke:none"
         id="path30" />
      <path
         d="m 1822.11,649.219 h 50.52 v 187.523 h -50.52 V 649.219"
         style="fill:#231f20;fill-opacity:1;fill-rule:nonzero;stroke:none"
         id="path32" />
      <path
         d="m 1822.11,858.832 h 50.52 v 46.027 h -50.52 v -46.027"
         style="fill:#231f20;fill-opacity:1;fill-rule:nonzero;stroke:none"
         id="path34" />
      <path
         d="m 1993.96,698.441 h -0.64 l -39.6,138.301 h -56.18 l 68.77,-187.523 h 52.89 l 69.04,187.523 h -53.53 l -40.75,-138.301"
         style="fill:#231f20;fill-opacity:1;fill-rule:nonzero;stroke:none"
         id="path36" />
      <path
         d="m 2113.75,649.219 h 50.45 v 187.523 h -50.45 V 649.219"
         style="fill:#231f20;fill-opacity:1;fill-rule:nonzero;stroke:none"
         id="path38" />
      <path
         d="m 2113.75,858.832 h 50.45 v 46.027 h -50.45 v -46.027"
         style="fill:#231f20;fill-opacity:1;fill-rule:nonzero;stroke:none"
         id="path40" />
      <path
         d="m 2238.54,761.578 c 2.97,24.813 15.45,39.551 39.45,39.551 16.09,0 35.86,-9.18 38.73,-39.551 z m 40.09,80.133 c -83.84,0 -91.95,-72.289 -91.95,-94.922 0,-77.148 41.39,-102.598 95.62,-102.598 32.64,0 70.78,14.848 84.07,59.969 h -51.76 c -4.05,-13.34 -18.37,-20.371 -32.31,-20.371 -40.79,0 -43.76,31.66 -45.16,45.82 h 131.49 v 8.75 c 0,85.68 -52.29,103.352 -90,103.352"
         style="fill:#231f20;fill-opacity:1;fill-rule:nonzero;stroke:none"
         id="path42" />
      <path
         d="m 2439.69,804.27 h -0.61 v 32.472 h -48.3 V 649.219 h 50.58 v 97.57 c 0,20.852 7.02,44.731 46.24,44.731 4.75,0 10.06,0 14.48,-0.598 v 50.187 c -3.29,0.161 -6.59,0.602 -9.73,0.602 -30.79,0 -42.14,-18.313 -52.66,-37.441"
         style="fill:#231f20;fill-opacity:1;fill-rule:nonzero;stroke:none"
         id="path44" />
      <path
         d="m 2560.64,761.578 c 2.91,24.813 15.45,39.551 39.22,39.551 16.21,0 35.99,-9.18 38.74,-39.551 z m 39.87,80.133 c -83.73,0 -91.68,-72.289 -91.68,-94.922 0,-77.148 41.33,-102.598 95.47,-102.598 32.52,0 70.77,14.848 83.95,59.969 h -51.8 c -3.89,-13.34 -18.21,-20.371 -32.15,-20.371 -40.75,0 -43.66,31.66 -45.17,45.82 h 131.28 v 8.75 c 0,85.68 -52.07,103.352 -89.9,103.352"
         style="fill:#231f20;fill-opacity:1;fill-rule:nonzero;stroke:none"
         id="path46" />
      <path
         d="m 2325.9,904.762 h -100.43 v -45.93 h 100.43 v 45.93"
         style="fill:#231f20;fill-opacity:1;fill-rule:nonzero;stroke:none"
         id="path48" />
    </g>
  </g>
</svg>
